<svg xmlns="http://www.w3.org/2000/svg" xmlns:xlink="http://www.w3.org/1999/xlink" width="13px" height="14px" viewBox="0 0 13 14" version="1.1">
    <!-- Generator: Sketch 50.2 (55047) - http://www.bohemiancoding.com/sketch -->
    <title>Fill 1</title>
    <desc>Created with Sketch.</desc>
    <defs/>
    <g id="Public" stroke="none" stroke-width="1" fill="none" fill-rule="evenodd">
        <g id="public_회원가입_소속select01" transform="translate(-1044.000000, -264.000000)" fill="#FFFFFF">
            <g id="social-service" transform="translate(790.000000, 251.000000)">
                <g id="btn_login_github" transform="translate(240.000000, 0.000000)">
                    <path d="M23.0359775,26.6911998 C23.0381991,26.6618749 23.037977,26.6481011 23.037977,26.6272182 C23.0350889,26.1093669 23.0437531,25.5912935 23.028202,25.0738865 C23.014206,24.6109084 22.893574,24.1748114 22.593438,23.8080279 C22.4852468,23.6765101 22.35795,23.5607656 22.2244328,23.4219166 C22.47014,23.3857048 22.7069609,23.3594901 22.9397829,23.3150584 C23.7704332,23.1571038 24.5744245,22.9231709 25.2631156,22.4068748 C25.9373664,21.9014644 26.3930133,21.2418761 26.6336109,20.4303314 C26.8466608,19.7112046 26.9241941,18.9767489 26.9039777,18.2309631 C26.8799846,17.3321101 26.586069,16.5298961 25.9962384,15.846759 C25.8991552,15.7341247 25.890491,15.6430397 25.9331454,15.5093003 C26.1952923,14.6893136 26.1017636,13.8855445 25.796518,13.0971043 C25.7794118,13.0526726 25.7052109,13.0006875 25.6592241,13.0022426 C25.4541719,13.0093517 25.2433435,13.0084631 25.0465112,13.0577822 C24.3582644,13.2301772 23.7384424,13.5569722 23.1541658,13.952192 C23.0441974,14.0266151 22.9460034,14.0452764 22.8184844,14.0130634 C21.2433813,13.6136226 19.6669452,13.6100681 18.091842,14.0148407 C17.9780969,14.0441656 17.8879006,14.0319469 17.7865964,13.9659658 C17.1923226,13.579188 16.5816091,13.2212908 15.8826987,13.0573379 C15.6836448,13.0104625 15.4730386,13.0046864 15.2670978,13.0000211 C15.2133354,12.9986881 15.1269158,13.0608925 15.1073659,13.1130997 C14.8083407,13.9150916 14.7074807,14.7293022 14.9929543,15.5586195 C15.0273889,15.6585908 15.0171696,15.7252383 14.9469675,15.8058818 C14.2336168,16.6254242 13.9574739,17.5882588 14.005238,18.6623947 C14.0372288,19.3852982 14.1276473,20.0966494 14.3966811,20.7715667 C14.7836811,21.7412882 15.4668182,22.4364219 16.4216551,22.8554126 C17.100349,23.1533271 17.8143662,23.3248334 18.5519321,23.3974792 C18.591032,23.4012558 18.6296875,23.4110308 18.7141077,23.4263598 C18.3677628,23.6896175 18.1189453,23.9873097 18.025861,24.3716438 C17.9492163,24.6868866 17.9061176,25.0150146 17.8918994,25.3393659 C17.873016,25.7687981 17.8823466,26.2004519 17.8850125,26.6503227 C18.7321026,26.8771464 19.6216249,27 20.5402499,27 C21.402891,27 22.2353186,26.8918089 23.0359775,26.6911998" id="Fill-1"/>
                </g>
            </g>
        </g>
    </g>
</svg>